<?xml version="1.0" encoding="UTF-8"?>
<svg xmlns="http://www.w3.org/2000/svg" width="48" height="48" viewBox="0 0 48 48">
  <path fill="#FFF" d="M4 4h40v40H4z"></path>
  <path fill="#0A66C2" fill-rule="nonzero" d="M44.4 0H3.6A3.6 3.6 0 0 0 0 3.6v40.8A3.6 3.6 0 0 0 3.6 48h40.8a3.6 3.6 0 0 0 3.6-3.6V3.6A3.6 3.6 0 0 0 44.4 0Zm-30 40.8H7.2V19.2h7.2v21.6ZM10.8 15a4.2 4.2 0 1 1 4.32-4.2A4.272 4.272 0 0 1 10.8 15Zm30 25.8h-7.2V29.424c0-3.408-1.44-4.632-3.312-4.632a4.176 4.176 0 0 0-3.888 4.464 1.584 1.584 0 0 0 0 .336V40.8h-7.2V19.2h6.96v3.12a7.464 7.464 0 0 1 6.48-3.36c3.72 0 8.064 2.064 8.064 8.784L40.8 40.8Z"></path>
</svg>
