<?xml version="1.0" encoding="UTF-8"?>
<svg xmlns="http://www.w3.org/2000/svg" width="112" height="93" viewBox="0 0 112 93">
  <g fill="none" fill-rule="nonzero">
    <path fill="#EC1C24" d="m3.72 92.88 44.37-23.42c2.56.22 5.17.34 7.83.34 30.91 0 55.91-15.69 55.91-35.05s-25-35-55.92-35S0 15.39 0 34.75c0 13.12 11.51 24.56 28.54 30.57L3.72 92.88Z"></path>
    <path fill="#FFF" d="M36.32 18.77h-11l.53 3h1a8.82 8.82 0 0 1 2 .2c.3.09.32.19.34.31a.54.54 0 0 1 0 .08 4.66 4.66 0 0 1-.66 1.86c-.36.7-1 1.74-1.81 3l-2.79 4.31-3.67-8s-.13-.28-.27-.64a5.59 5.59 0 0 1-.24-.72.46.46 0 0 1 0-.1h.08a6.85 6.85 0 0 1 1.87-.24l1.33-.07-.54-3H9.02l.54 3 .87.09a4.94 4.94 0 0 1 1.93.45 5.92 5.92 0 0 1 1.15 1.93s5.38 11.56 5.64 12.13c-.06.61-1.08 9.46-1.08 9.46a2.45 2.45 0 0 1-.89 2 6.53 6.53 0 0 1-2.35.35l-1.29.1.54 3h15.8l-.55-3.1h-.95a11 11 0 0 1-3-.33c-.18-.06-.31-.31-.39-.73a5.36 5.36 0 0 1-.06-.87c.01-.525.05-1.05.12-1.57 0 0 .82-6.9 1-8.3l7.78-12.29a7.63 7.63 0 0 1 1.38-1.8 3 3 0 0 1 1.4-.44l1.22-.14-.53-2.93h-.98Z"></path>
    <path fill="#FFF" d="M40.06 28.49h.06l-3.48.68-4.32.89.51 2.7h1a7.13 7.13 0 0 1 1.74.13c.04.096.066.197.08.3v.56c0 .06-.93 12.67-.93 12.67v.88c.005.319.039.637.1.95a4.05 4.05 0 0 0 2.21 3.11 4.49 4.49 0 0 0 1.92.44c2.25 0 4.32-1.42 6.18-4.21.34-.52.71-1.16 1.11-1.91 0 .44-.07.86-.07 1.25v.16c.007.496.05.99.13 1.48A3.7 3.7 0 0 0 47.69 51c.7.517 1.55.788 2.42.77 1.67 0 3.24-1 4.66-3a16.58 16.58 0 0 0 1.77-3.18l.41-.94-2.61-1.48-1.58 2.47c-.196.328-.41.645-.64.95l-.07.08v-.38l1.45-16 .11-1.28h-5.65l-.17 1c-.44 2.47-.81 4.3-1.09 5.46a28.9 28.9 0 0 1-1.61 4.89 31.15 31.15 0 0 1-2.59 4.74c-1.17 1.76-1.82 1.85-1.94 1.85h-.07a1.1 1.1 0 0 1 0-.11v-.2l.07-.82 1.27-15.49v-.39a1.46 1.46 0 0 0-.44-1 1.41 1.41 0 0 0-1.33-.45ZM64.49 28.53c-3.22.74-5.59 1.24-7 1.48l-1.22.16.56 3h1a9.23 9.23 0 0 1 1.92.06.4.4 0 0 1 0 .16.9.9 0 0 1 0 .25v.37l-1.67 17.26h5.75l.14-1c.35-2.52.64-4.47.88-5.8a20.56 20.56 0 0 1 1.47-5 27.47 27.47 0 0 1 2.58-4.3c1.23-1.76 1.93-1.9 2.13-1.9a1 1 0 0 1 0 .19v.51c0 .02-1.57 17.3-1.57 17.3h5.84l.1-1.06c.35-3.67.6-6 .77-7a19.21 19.21 0 0 1 1.12-3.74 27.59 27.59 0 0 1 2.57-4.41c.8-1.15 1.56-1.78 2.14-1.79a.31.31 0 0 1 .06.15v.54l-1 12.63v.95c.01.301.036.602.08.9a3.94 3.94 0 0 0 1.69 2.73 3.45 3.45 0 0 0 1.93.56 5.41 5.41 0 0 0 3.82-1.7 15.71 15.71 0 0 0 2.85-4l.17-.31.49-.92-2.66-1.82-1.73 2.7-.17.27c-.15.21-.32.44-.52.69.13-1.44 1.07-11.51 1.07-11.51 0-.73.05-1.26.05-1.65a6.12 6.12 0 0 0-.06-1 4.53 4.53 0 0 0-1.76-3.07 4.71 4.71 0 0 0-2.75-.94c-2.08 0-4.07 1.35-6.08 4.12-.17.24-.35.51-.53.79a7.09 7.09 0 0 0-.08-1 4.6 4.6 0 0 0-2.11-3.21 4.27 4.27 0 0 0-2.3-.67c-2 0-3.86 1.23-5.78 3.76-.31.43-.62.89-.94 1.37l.47-4.36-1.18-.88-.54.14ZM96.05 20.02a11.9 11.9 0 0 0-.6 4.61v4.18c0 .27 0 1.52-.14 6.08l-.22 7.82 1 .2 1.92.38 1.55-7.44c.66-3 .94-4.24 1-4.71 1-3.95 1.59-6.29 1.74-7.16a8.17 8.17 0 0 0 0-2.7 4 4 0 0 0-1.14-2.19 3.3 3.3 0 0 0-2.37-1 3 3 0 0 0-2.74 1.93Zm-2.88 25.77a3.11 3.11 0 0 0-.64 2.47 4.15 4.15 0 0 0 1.52 2.63 4 4 0 0 0 2.51.91 3.14 3.14 0 0 0 2.54-1.17 3.27 3.27 0 0 0 .73-2.66 3.89 3.89 0 0 0-1.53-2.46 4.16 4.16 0 0 0-2.53-.91 3.05 3.05 0 0 0-2.6 1.19Z"></path>
  </g>
</svg>
