<svg xmlns="http://www.w3.org/2000/svg" fill="none" viewBox="0 0 33 33" height="33" width="33">
<g clip-path="url(#clip0_69_2)">
<path fill="#E50019" d="M16.5 33C25.6127 33 33 25.6127 33 16.5C33 7.3873 25.6127 0 16.5 0C7.3873 0 0 7.3873 0 16.5C0 25.6127 7.3873 33 16.5 33Z"></path>
<path fill="white" d="M16.602 6.99902C14.7033 6.99902 12.8472 7.56205 11.2685 8.61692C9.68977 9.67178 8.45932 11.1711 7.73271 12.9253C7.00611 14.6794 6.816 16.6097 7.18642 18.4719C7.55684 20.3341 8.47115 22.0447 9.81373 23.3872C11.1563 24.7298 12.8669 25.6441 14.7291 26.0146C16.5913 26.385 18.5215 26.1949 20.2757 25.4683C22.0299 24.7417 23.5292 23.5112 24.5841 21.9325C25.6389 20.3538 26.202 18.4977 26.202 16.599C26.199 14.0538 25.1867 11.6137 23.387 9.81401C21.5872 8.0143 19.1471 7.00193 16.602 6.99902ZM24.79 16.599C24.7893 18.4013 24.1915 20.1525 23.09 21.579C22.8803 21.3931 22.7361 21.1446 22.6786 20.8703C22.6212 20.596 22.6536 20.3105 22.771 20.056C23.0547 19.1574 23.1607 18.2121 23.083 17.273C23.017 16.679 22.708 15.248 21.869 15.234C21.4557 15.2521 21.0475 15.1372 20.7043 14.9063C20.3611 14.6754 20.1009 14.3406 19.962 13.951C18.929 11.883 21.901 11.486 20.868 10.342C20.579 10.02 19.085 11.664 18.868 9.47302C18.9087 9.23041 19.0265 9.00738 19.204 8.83702C20.83 9.3839 22.2435 10.427 23.2456 11.8194C24.2477 13.2118 24.7878 14.8835 24.79 16.599ZM15.477 8.49202C15.277 8.87402 14.764 9.02902 14.45 9.31602C13.766 9.93502 13.472 9.84902 13.104 10.443C12.736 11.037 11.537 11.892 11.537 12.322C11.537 12.752 12.137 13.258 12.443 13.16C12.9631 13.054 13.5013 13.0781 14.01 13.23C14.479 13.396 17.924 13.562 16.826 16.474C16.478 17.4 14.953 17.244 14.547 18.774C14.4207 19.2676 14.3255 19.7686 14.262 20.274C14.237 20.763 14.602 22.599 14.137 22.599C13.672 22.599 12.402 20.956 12.402 20.659C12.2482 19.9229 12.1387 19.1782 12.074 18.429C12.074 17.538 10.556 17.552 10.556 16.367C10.556 15.299 11.379 14.767 11.194 14.254C11.009 13.741 9.56696 13.727 8.96396 13.664"></path>
</g>
<defs>
<clipPath id="clip0_69_2">
<rect fill="white" height="33" width="33"></rect>
</clipPath>
</defs>
</svg>
