<svg xmlns="http://www.w3.org/2000/svg" fill="none" viewBox="0 0 33 33" height="33" width="33">
<g clip-path="url(#clip0_69_6)">
<path fill="#E50019" d="M19.96 14.639C19.9155 14.6833 19.8851 14.7397 19.8727 14.8013C19.8603 14.8628 19.8665 14.9267 19.8905 14.9847C19.9144 15.0427 19.955 15.0923 20.0072 15.1273C20.0594 15.1622 20.1207 15.1808 20.1835 15.1808C20.2463 15.1808 20.3076 15.1622 20.3598 15.1273C20.412 15.0923 20.4526 15.0427 20.4765 14.9847C20.5005 14.9267 20.5067 14.8628 20.4943 14.8013C20.4819 14.7397 20.4515 14.6833 20.407 14.639C20.3777 14.6096 20.3428 14.5863 20.3045 14.5705C20.2661 14.5546 20.225 14.5464 20.1835 14.5464C20.142 14.5464 20.1009 14.5546 20.0625 14.5705C20.0242 14.5863 19.9893 14.6096 19.96 14.639ZM19.439 17.137C19.3944 17.1814 19.364 17.2381 19.3517 17.2998C19.3393 17.3615 19.3456 17.4255 19.3696 17.4837C19.3937 17.5418 19.4344 17.5916 19.4867 17.6266C19.539 17.6615 19.6006 17.6802 19.6635 17.6802C19.7264 17.6802 19.788 17.6615 19.8403 17.6266C19.8926 17.5916 19.9334 17.5418 19.9574 17.4837C19.9814 17.4255 19.9877 17.3615 19.9753 17.2998C19.963 17.2381 19.9326 17.1814 19.888 17.137C19.8283 17.0778 19.7476 17.0446 19.6635 17.0446C19.5794 17.0446 19.4987 17.0778 19.439 17.137ZM17.981 12.66C17.9364 12.7044 17.906 12.7611 17.8937 12.8228C17.8813 12.8845 17.8876 12.9485 17.9116 13.0067C17.9357 13.0648 17.9764 13.1146 18.0287 13.1496C18.081 13.1845 18.1426 13.2032 18.2055 13.2032C18.2684 13.2032 18.33 13.1845 18.3823 13.1496C18.4346 13.1146 18.4754 13.0648 18.4994 13.0067C18.5234 12.9485 18.5297 12.8845 18.5173 12.8228C18.505 12.7611 18.4746 12.7044 18.43 12.66C18.3703 12.6008 18.2896 12.5676 18.2055 12.5676C18.1214 12.5676 18.0407 12.6008 17.981 12.66ZM15.483 13.181C15.4388 13.2254 15.4087 13.2819 15.3965 13.3433C15.3844 13.4048 15.3907 13.4685 15.4147 13.5263C15.4387 13.5842 15.4794 13.6337 15.5315 13.6684C15.5836 13.7032 15.6448 13.7218 15.7075 13.7218C15.7702 13.7218 15.8314 13.7032 15.8835 13.6684C15.9356 13.6337 15.9763 13.5842 16.0003 13.5263C16.0243 13.4685 16.0306 13.4048 16.0185 13.3433C16.0063 13.2819 15.9762 13.2254 15.932 13.181C15.9026 13.1513 15.8677 13.1278 15.8291 13.1117C15.7906 13.0957 15.7493 13.0874 15.7075 13.0874C15.6658 13.0874 15.6244 13.0957 15.5859 13.1117C15.5474 13.1278 15.5124 13.1513 15.483 13.181ZM17.461 15.159C17.4166 15.2033 17.3864 15.2598 17.3741 15.3213C17.3619 15.3828 17.3681 15.4466 17.3921 15.5045C17.4161 15.5625 17.4567 15.612 17.5088 15.6469C17.561 15.6817 17.6223 15.7003 17.685 15.7003C17.7477 15.7003 17.809 15.6817 17.8612 15.6469C17.9133 15.612 17.9539 15.5625 17.9779 15.5045C18.0019 15.4466 18.0081 15.3828 17.9959 15.3213C17.9836 15.2598 17.9534 15.2033 17.909 15.159C17.8496 15.0996 17.769 15.0663 17.685 15.0663C17.601 15.0663 17.5204 15.0996 17.461 15.159ZM16.003 10.682C15.9586 10.7263 15.9284 10.7828 15.9161 10.8443C15.9039 10.9058 15.9101 10.9696 15.9341 11.0275C15.9581 11.0855 15.9987 11.135 16.0508 11.1699C16.103 11.2047 16.1643 11.2233 16.227 11.2233C16.2897 11.2233 16.351 11.2047 16.4032 11.1699C16.4553 11.135 16.4959 11.0855 16.5199 11.0275C16.5439 10.9696 16.5501 10.9058 16.5379 10.8443C16.5256 10.7828 16.4954 10.7263 16.451 10.682C16.3916 10.6226 16.311 10.5893 16.227 10.5893C16.143 10.5893 16.0624 10.6226 16.003 10.682ZM18.237 10.427C18.1926 10.4713 18.1624 10.5278 18.1501 10.5893C18.1379 10.6508 18.1441 10.7146 18.1681 10.7725C18.1921 10.8305 18.2327 10.88 18.2848 10.9149C18.337 10.9497 18.3983 10.9683 18.461 10.9683C18.5237 10.9683 18.585 10.9497 18.6372 10.9149C18.6893 10.88 18.7299 10.8305 18.7539 10.7725C18.7779 10.7146 18.7841 10.6508 18.7719 10.5893C18.7596 10.5278 18.7294 10.4713 18.685 10.427C18.6256 10.3676 18.545 10.3343 18.461 10.3343C18.377 10.3343 18.2964 10.3676 18.237 10.427ZM22.224 12.375C22.1796 12.4193 22.1494 12.4758 22.1371 12.5373C22.1249 12.5988 22.1311 12.6626 22.1551 12.7205C22.1791 12.7785 22.2197 12.828 22.2718 12.8629C22.324 12.8977 22.3853 12.9163 22.448 12.9163C22.5107 12.9163 22.572 12.8977 22.6242 12.8629C22.6763 12.828 22.7169 12.7785 22.7409 12.7205C22.7649 12.6626 22.7711 12.5988 22.7589 12.5373C22.7466 12.4758 22.7164 12.4193 22.672 12.375C22.6426 12.3455 22.6077 12.3221 22.5693 12.3061C22.5309 12.2901 22.4896 12.2819 22.448 12.2819C22.4064 12.2819 22.3652 12.2901 22.3267 12.3061C22.2883 12.3221 22.2534 12.3455 22.224 12.375Z"></path>
<circle fill="white" r="12" cy="17" cx="17"></circle>
<path fill="#E50019" d="M16.5 0C13.2366 0 10.0465 0.967708 7.3331 2.78075C4.61969 4.59379 2.50484 7.17074 1.256 10.1857C0.00714922 13.2007 -0.319606 16.5183 0.31705 19.719C0.953706 22.9197 2.52518 25.8597 4.83275 28.1673C7.14031 30.4748 10.0803 32.0463 13.281 32.683C16.4817 33.3196 19.7993 32.9929 22.8143 31.744C25.8293 30.4952 28.4062 28.3803 30.2193 25.6669C32.0323 22.9535 33 19.7634 33 16.5C33 12.1239 31.2616 7.92709 28.1673 4.83274C25.0729 1.73839 20.8761 0 16.5 0ZM25.088 16C24.7858 16.8156 24.3078 17.5547 23.688 18.165C23.2869 18.5652 22.8429 18.92 22.364 19.223C22.2775 19.2781 22.1902 19.3317 22.102 19.384C20.6159 20.216 18.967 20.7158 17.269 20.849L16.935 20.883L16.87 20.89L16.586 20.922H16.564C15.4343 20.9985 14.3256 21.2656 13.285 21.712L13.237 21.737C13.0383 21.8472 12.8556 21.9842 12.694 22.144L11.685 23.153C11.814 23.3417 11.8923 23.5603 11.9125 23.788C11.9326 24.0156 11.8939 24.2446 11.8 24.453C11.6871 24.7218 11.5002 24.9529 11.261 25.1195C11.0218 25.2861 10.7402 25.3813 10.449 25.394C10.0888 25.367 9.75138 25.2073 9.50201 24.946C9.35107 24.7972 9.23198 24.6193 9.15201 24.423C9.0909 24.2693 9.05967 24.1054 9.06001 23.94C8.89459 23.9407 8.7306 23.9094 8.57701 23.848C8.31161 23.741 8.08069 23.5632 7.90946 23.334C7.73823 23.1047 7.63326 22.8328 7.60601 22.548C7.61901 22.257 7.71434 21.9756 7.88092 21.7367C8.0475 21.4977 8.27847 21.3109 8.54701 21.198C8.75466 21.1047 8.98278 21.0663 9.20952 21.0865C9.43626 21.1066 9.65404 21.1846 9.84201 21.313L10.851 20.304C11.1603 19.9664 11.3924 19.5654 11.531 19.129L11.546 19.089L11.563 19.039C11.8745 17.9591 12.0709 16.8492 12.149 15.728C12.2857 13.926 12.8425 12.181 13.775 10.633C14.0782 10.1541 14.4334 9.71005 14.834 9.309C15.4441 8.68895 16.1833 8.21094 16.999 7.909C17.7186 7.65825 18.4834 7.56421 19.2423 7.6332C20.0011 7.70218 20.7365 7.9326 21.399 8.309L21.599 8.417C21.729 8.491 21.857 8.57 21.985 8.655C22.9183 9.28217 23.7208 10.0847 24.348 11.018C24.473 11.2073 24.5882 11.4029 24.693 11.604C25.0676 12.2663 25.2966 13.001 25.3647 13.7589C25.4329 14.5168 25.3385 15.2805 25.088 15.999V16Z"></path>
<path fill="#E50019" d="M22.193 14.384C22.1488 14.4284 22.1187 14.4849 22.1065 14.5463C22.0944 14.6078 22.1007 14.6715 22.1247 14.7293C22.1488 14.7872 22.1894 14.8367 22.2415 14.8715C22.2936 14.9062 22.3548 14.9248 22.4175 14.9248C22.4802 14.9248 22.5414 14.9062 22.5935 14.8715C22.6456 14.8367 22.6863 14.7872 22.7103 14.7293C22.7343 14.6715 22.7406 14.6078 22.7285 14.5463C22.7163 14.4849 22.6862 14.4284 22.642 14.384C22.6126 14.3543 22.5777 14.3308 22.5391 14.3147C22.5006 14.2987 22.4593 14.2904 22.4175 14.2904C22.3758 14.2904 22.3344 14.2987 22.2959 14.3147C22.2574 14.3308 22.2224 14.3543 22.193 14.384ZM21.938 16.621C21.8934 16.6654 21.863 16.7221 21.8507 16.7838C21.8383 16.8455 21.8446 16.9095 21.8686 16.9677C21.8927 17.0258 21.9334 17.0756 21.9857 17.1106C22.038 17.1455 22.0996 17.1642 22.1625 17.1642C22.2254 17.1642 22.287 17.1455 22.3393 17.1106C22.3916 17.0756 22.4324 17.0258 22.4564 16.9677C22.4804 16.9095 22.4867 16.8455 22.4743 16.7838C22.462 16.7221 22.4316 16.6654 22.387 16.621C22.3576 16.5915 22.3226 16.568 22.284 16.552C22.2455 16.536 22.2042 16.5278 22.1625 16.5278C22.1208 16.5278 22.0795 16.536 22.041 16.552C22.0024 16.568 21.9675 16.5915 21.938 16.621ZM20.245 10.396C20.2004 10.4404 20.17 10.4971 20.1577 10.5588C20.1453 10.6205 20.1516 10.6845 20.1756 10.7427C20.1997 10.8008 20.2404 10.8506 20.2927 10.8856C20.345 10.9205 20.4066 10.9392 20.4695 10.9392C20.5324 10.9392 20.594 10.9205 20.6463 10.8856C20.6986 10.8506 20.7394 10.8008 20.7634 10.7427C20.7874 10.6845 20.7937 10.6205 20.7813 10.5588C20.769 10.4971 20.7386 10.4404 20.694 10.396C20.6343 10.3368 20.5536 10.3036 20.4695 10.3036C20.3854 10.3036 20.3047 10.3368 20.245 10.396ZM20.215 12.405C20.1705 12.4493 20.1401 12.5057 20.1277 12.5673C20.1154 12.6288 20.1215 12.6927 20.1455 12.7507C20.1694 12.8087 20.21 12.8583 20.2622 12.8933C20.3144 12.9282 20.3757 12.9468 20.4385 12.9468C20.5013 12.9468 20.5626 12.9282 20.6148 12.8933C20.667 12.8583 20.7076 12.8087 20.7316 12.7507C20.7555 12.6927 20.7617 12.6288 20.7493 12.5673C20.7369 12.5057 20.7065 12.4493 20.662 12.405C20.6025 12.3462 20.5222 12.3132 20.4385 12.3132C20.3548 12.3132 20.2745 12.3462 20.215 12.405Z"></path>
</g>
<defs>
<clipPath id="clip0_69_6">
<rect fill="white" height="33" width="33"></rect>
</clipPath>
</defs>
</svg>
